Clash.Of.Empires.Battle.For.Asia.2011.480p.BRRip.XviD.Ac3.Feel-Free

Genre:Action, Adventure
Language:Mix of english and asian countries
Source:BluRay.x264-METH
SUBTITLE(S): English

Format : AVI
Format/Info : Audio Video Interleave
File size : 1.49 GiB
Duration : 1h 49mn
Overall bit rate : 1 956 Kbps

Video
ID : 0
Format : MPEG-4 Visual
Format profile : Advanced Simple@L5
Format settings, BVOP : Yes
Format settings, QPel : No
Format settings, GMC : No warppoints
Format settings, Matrix : Default (H.263)
Codec ID : XVID
Codec ID/Hint : XviD
Duration : 1h 49mn
Bit rate : 1 498 Kbps
Width : 640 pixels
Height : 360 pixels
Display aspect ratio : 16:9
Frame rate : 24.000 fps
Color space : YUV
Chroma subsampling : 4:2:0
Bit depth : 8 bits
Scan type : Progressive
Bits/(Pixel*Frame) : 0.271
Stream size : 1.14 GiB (77%)
Writing library : XviD 1.2.1 (UTC 2008-12-04)

Audio
ID : 1
Format : AC-3
Format/Info : Audio Coding 3
Mode extension : CM (complete main)
Codec ID : 2000
Duration : 1h 49mn
Bit rate mode : Constant
Bit rate : 448 Kbps
Channel(s) : 6 channels
Channel positions : Front: L C R, Side: L R, LFE
Sampling rate : 48.0 KHz
Bit depth : 16 bits
Stream size : 350 MiB (23%)
Alignment : Aligned on interleaves
Interleave, duration : 42 ms (1.00 video frame)
Interleave, preload duration : 512 ms


Plot:

The might of the two greatest superpowers of the ancient world collide
in an almighty clash the likes of which have never been seen before
in this stunning tale of magic, myth and legend. Combining epic action
with dazzling visual effects, and featuring an array of fighting styles
and intense battles, Clash Of Empires is an action-packed thrill ride
from sweeping start to blockbuster finale.


Screens:

 
http://www.postimg.com/image/38000/photo-37669.jpg
 
http://www.postimg.com/image/38000/photo-37670.jpg
 
http://www.postimg.com/image/38000/photo-37671.jpg


ENJOY!